<?xml version="1.0" encoding="utf-8" ?><svg xmlns="http://www.w3.org/2000/svg" xmlns:xlink="http://www.w3.org/1999/xlink" width="4173" height="2384" viewBox="0 0 4173 2384"><path fill="#B4B1B1" transform="matrix(1.0188 0 0 1.01837 -6.10352e-05 0)" d="M2287.13 990.854C2339.68 991.055 2392.23 990.715 2444.75 989.833L2395.56 1033.57C2365.81 1061.9 2334.86 1089.82 2302.74 1117.3C2289.54 1128.72 2271.85 1142.76 2260.09 1154.03C2280.6 1171.38 2300.6 1188.93 2320.07 1206.67C2320.34 1233.4 2321.51 1268.4 2319.77 1294.56C2319.17 1303.7 2269.75 1345.27 2257.73 1355.9L2131.21 1467.6L2077.06 1516.13C2070.78 1521.8 2054.92 1536.94 2048.47 1540.86C2041.53 1501.06 2051.96 1446.33 2047.2 1403.63C2062.01 1388.93 2082.03 1372.15 2098.12 1357.53C2132.06 1326.3 2166.56 1295.27 2201.6 1264.44C2175.44 1242.3 2149.01 1220.27 2122.33 1198.33C2118.33 1195.78 2093.47 1174.39 2088.77 1170.46C2123.31 1141.24 2157.25 1108.82 2190.21 1078.83C2220.44 1051.33 2260 1019.05 2287.13 990.854Z"/><path fill="#313130" transform="matrix(1.0188 0 0 1.01837 -6.10352e-05 0)" d="M2287.13 990.854C2339.68 991.055 2392.23 990.715 2444.75 989.833L2395.56 1033.57C2382.25 1029.14 2326.82 1031.03 2307.9 1031.02L2189.57 1136.52C2169.94 1154.01 2138.06 1180.62 2122.33 1198.33C2118.33 1195.78 2093.47 1174.39 2088.77 1170.46C2123.31 1141.24 2157.25 1108.82 2190.21 1078.83C2220.44 1051.33 2260 1019.05 2287.13 990.854Z"/><path fill="#B4B1B1" transform="matrix(1.0188 0 0 1.01837 -6.10352e-05 0)" d="M2238.32 838.011C2347.46 838.434 2470.07 840.112 2578.6 837.761C2545.22 871.343 2503.81 910.471 2473.26 944.132L2279.48 944.13C2203.3 1009.67 2127.3 1080.98 2050.12 1145.1C2045.4 1139.79 2048.91 1030.3 2047.29 1011.55C2091.92 971.795 2134.11 930.697 2178.84 890.995C2194.92 876.716 2221.14 850.646 2238.32 838.011Z"/><path fill="#313130" transform="matrix(1.0188 0 0 1.01837 -6.10352e-05 0)" d="M1516.52 838.47L1855.17 838.672C1902.36 877.337 1954.31 928.257 2000.01 968.958C2007.15 975.473 2041.68 1008.27 2047.29 1011.55C2048.91 1030.3 2045.4 1139.79 2050.12 1145.1L2048.34 1145.23C2040.97 1143.72 2003.99 1109.82 1997.32 1103.99C1934.79 1051.68 1877.81 996.412 1816.22 943.663C1752.64 942.672 1683.11 943.601 1618.97 943.772C1607.69 929.88 1589.93 912.74 1576.5 899.024C1556.89 878.717 1536.89 858.531 1516.52 838.47Z"/><path transform="matrix(1.0188 0 0 1.01837 -6.10352e-05 0)" d="M2000.01 968.958C2007.15 975.473 2041.68 1008.27 2047.29 1011.55C2048.91 1030.3 2045.4 1139.79 2050.12 1145.1L2048.34 1145.23C2040.97 1143.72 2003.99 1109.82 1997.32 1103.99C2002.44 1099.15 2000.14 984.971 2000.01 968.958Z"/><path fill="#313130" transform="matrix(1.0188 0 0 1.01837 -6.10352e-05 0)" d="M1650.49 989.791C1701.68 989.449 1752.87 989.423 1804.06 989.714C1840.94 1020.86 1878.26 1055.25 1914.3 1087C1958.86 1125.69 2003.01 1164.52 2046.76 1203.5C2046.93 1247.55 2048.97 1296.51 2046.31 1340.18L2044.91 1340.22C2037.62 1338.13 1968.53 1273.74 1959.5 1265.68L1804.21 1128.23L1716.66 1050.64C1694.63 1031.18 1669.89 1009.99 1650.49 989.791Z"/><path transform="matrix(1.0188 0 0 1.01837 -6.10352e-05 0)" d="M1773.62 1165.8C1839.28 1217.35 1911.12 1282.32 1971.75 1336.42L2022.05 1381.98C2027.49 1386.91 2040.94 1399.88 2047.2 1403.63C2051.96 1446.33 2041.53 1501.06 2048.47 1540.86C2030.87 1525.57 2012.77 1510.3 1995.46 1494.93C1970.04 1474.4 1940.56 1446.47 1916.22 1424.84L1773.98 1299.5C1773.72 1289.5 1773.83 1279.49 1774.32 1269.49L1773.62 1165.8Z"/><path fill="#313130" transform="matrix(1.0188 0 0 1.01837 -6.10352e-05 0)" d="M1774.32 1269.49C1778.31 1260.9 1776.84 1233.9 1776.64 1223.67C1795.64 1238.87 1810.99 1254.11 1828.93 1269.31C1887.11 1318.61 1941.15 1368.82 1999.39 1418.15C1999.56 1430.29 2002.75 1487.19 1995.46 1494.93C1970.04 1474.4 1940.56 1446.47 1916.22 1424.84L1773.98 1299.5C1773.72 1289.5 1773.83 1279.49 1774.32 1269.49Z"/></svg>